<?xml version="1.0" standalone="no"?>
<!DOCTYPE svg PUBLIC "-//W3C//DTD SVG 20010904//EN"
 "http://www.w3.org/TR/2001/REC-SVG-20010904/DTD/svg10.dtd">
<svg version="1.0" xmlns="http://www.w3.org/2000/svg"
 width="32.000000pt" height="32.000000pt" viewBox="0 0 32.000000 32.000000"
 preserveAspectRatio="xMidYMid meet">

<g transform="translate(0.000000,32.000000) scale(0.100000,-0.100000)"
fill="#000000" stroke="none">
<path d="M70 270 c-10 -19 -8 -20 37 -20 l48 0 -30 20 c-37 25 -42 25 -55 0z"/>
<path d="M17 220 c-3 -11 -1 -18 4 -14 5 3 9 0 9 -6 0 -6 5 -8 12 -4 20 13 88
13 88 1 0 -8 3 -8 11 0 6 6 17 9 24 6 10 -3 12 2 8 16 -5 19 -13 21 -78 21
-64 0 -73 -2 -78 -20z"/>
<path d="M200 199 c0 -5 5 -7 10 -4 6 3 10 8 10 11 0 2 -4 4 -10 4 -5 0 -10
-5 -10 -11z"/>
<path d="M268 203 c7 -3 16 -2 19 1 4 3 -2 6 -13 5 -11 0 -14 -3 -6 -6z"/>
<path d="M33 168 c-2 -5 16 -8 41 -8 25 0 46 3 46 8 0 9 -80 9 -87 0z"/>
<path d="M255 169 c-28 -6 -26 -7 13 -8 42 -1 53 3 30 11 -7 2 -26 1 -43 -3z"/>
<path d="M143 163 c9 -2 25 -2 35 0 9 3 1 5 -18 5 -19 0 -27 -2 -17 -5z"/>
<path d="M29 146 c0 -1 -2 -25 -2 -53 l-2 -53 37 0 c25 0 38 5 38 14 0 9 -8
12 -25 8 -15 -2 -25 0 -25 7 0 6 7 11 15 11 8 0 15 7 15 15 0 9 -6 12 -15 9
-9 -4 -15 0 -15 10 0 19 21 21 38 4 9 -9 12 -8 12 5 0 9 -6 17 -12 18 -7 0
-23 2 -35 3 -13 2 -23 2 -24 2z"/>
<path d="M175 90 l0 -50 50 0 50 0 0 50 c0 45 -2 50 -22 50 -12 0 -24 -6 -27
-12 -5 -10 -7 -10 -12 0 -3 6 -13 12 -22 12 -14 0 -17 -10 -17 -50z m34 -33
c1 -5 -3 -5 -9 -2 -5 3 -10 16 -9 28 0 21 1 21 9 2 5 -11 9 -24 9 -28z m28 6
c-3 -10 -5 -4 -5 12 0 17 2 24 5 18 2 -7 2 -21 0 -30z"/>
<path d="M115 61 c-3 -5 -1 -12 5 -16 5 -3 10 1 10 9 0 18 -6 21 -15 7z"/>
<path d="M290 56 c0 -9 5 -16 10 -16 6 0 10 4 10 9 0 6 -4 13 -10 16 -5 3 -10
-1 -10 -9z"/>
</g>
</svg>
